<?xml version="1.0" standalone="no"?>
<!DOCTYPE svg PUBLIC "-//W3C//DTD SVG 20010904//EN"
 "http://www.w3.org/TR/2001/REC-SVG-20010904/DTD/svg10.dtd">
<svg version="1.0" xmlns="http://www.w3.org/2000/svg"
 width="566.000000pt" height="566.000000pt" viewBox="0 0 566.000000 566.000000"
 preserveAspectRatio="xMidYMid meet">
<metadata>
Created by potrace 1.11, written by Peter Selinger 2001-2013
</metadata>
<g transform="translate(0.000000,566.000000) scale(0.100000,-0.100000)"
fill="#000000" stroke="none">
<path d="M2868 3965 c-2 -1 -35 -6 -74 -9 -39 -4 -82 -9 -95 -11 -13 -3 -48
-7 -79 -10 -69 -7 -71 -7 -200 -40 -58 -15 -112 -29 -120 -30 -8 -2 -15 -4
-15 -5 0 -1 -8 -3 -19 -5 -10 -2 -39 -8 -65 -14 -44 -10 -66 -15 -140 -27 -18
-3 -42 -7 -53 -9 -11 -3 -46 -7 -77 -10 -31 -3 -67 -8 -81 -10 -14 -3 -38 -7
-55 -10 -55 -9 -69 -13 -135 -35 -101 -34 -194 -87 -262 -150 -35 -32 -87 -68
-118 -81 -70 -29 -155 -82 -199 -123 -85 -80 -144 -209 -145 -318 -1 -35 -5
-58 -12 -58 -35 0 -57 -66 -40 -117 6 -19 3 -25 -19 -33 -54 -21 -154 -106
-194 -165 -74 -110 -79 -228 -15 -372 10 -24 22 -43 26 -43 5 0 8 -6 8 -13 0
-18 92 -130 180 -218 63 -64 192 -165 210 -166 3 0 21 -7 40 -15 36 -16 69
-30 83 -33 4 -2 9 -4 12 -5 3 -1 8 -3 13 -4 4 -1 16 -5 27 -9 53 -17 312 -64
460 -82 28 -4 61 -8 75 -11 14 -2 49 -6 78 -10 29 -3 61 -7 70 -9 9 -1 51 -6
92 -10 41 -4 84 -9 95 -11 135 -26 510 -24 665 3 19 4 193 6 385 5 193 0 368
3 390 8 22 5 60 12 85 15 25 4 63 10 85 14 22 4 55 7 73 6 17 0 32 2 32 5 0 3
21 5 48 5 26 -1 74 3 107 7 33 5 76 10 95 12 19 2 42 7 50 10 8 3 29 8 45 11
45 9 49 10 60 16 6 4 24 9 40 13 57 13 154 68 203 114 74 71 144 203 158 300
2 15 6 38 8 52 3 14 5 33 5 43 1 9 6 17 12 17 5 0 38 13 72 30 34 16 76 31 92
34 17 2 30 5 30 6 0 1 11 4 25 6 79 15 177 54 192 77 15 24 -34 72 -83 83 -33
6 -93 6 -162 0 l-57 -6 14 23 c8 12 16 42 19 67 3 25 8 57 12 71 8 34 -12 50
-67 51 -67 0 -88 7 -88 26 0 10 4 22 10 28 5 5 6 15 1 22 -7 11 -11 10 -24 -2
-8 -9 -17 -16 -20 -16 -10 0 -47 39 -47 49 0 7 -4 9 -10 6 -6 -4 -10 7 -10 24
0 29 -11 38 -44 32 -4 -1 -14 6 -21 15 -11 16 -39 23 -90 25 -74 1 -172 -4
-180 -10 -15 -11 -30 -8 -50 12 -17 18 -17 19 4 33 11 8 21 21 21 28 0 22 52
38 128 41 40 2 94 7 120 10 26 4 54 7 62 7 27 0 80 19 75 28 -3 5 -1 11 4 15
15 8 -2 47 -55 126 -147 222 -477 445 -829 561 -74 24 -228 65 -275 72 -19 3
-46 8 -60 10 -68 13 -91 17 -171 27 -78 9 -334 20 -341 14z"/>
</g>
</svg>
